<svg width="24" height="24" viewBox="0 0 24 24" fill="none" xmlns="http://www.w3.org/2000/svg">
<path d="M12 18.0322C11.0658 18.0322 10.1862 17.9183 9.36133 17.6904C8.53646 17.4671 7.77311 17.1709 7.07129 16.8018C6.36947 16.4326 5.74056 16.0247 5.18457 15.5781C4.63314 15.1315 4.16146 14.6849 3.76953 14.2383C3.3776 13.7917 3.0791 13.3792 2.87402 13.001C2.66895 12.6182 2.56641 12.3083 2.56641 12.0713C2.56641 11.8389 2.66895 11.5335 2.87402 11.1553C3.0791 10.7725 3.3776 10.3577 3.76953 9.91113C4.16146 9.46452 4.63314 9.0179 5.18457 8.57129C5.74056 8.12467 6.36947 7.7168 7.07129 7.34766C7.77311 6.97852 8.53646 6.68229 9.36133 6.45898C10.1908 6.23112 11.0703 6.11719 12 6.11719C12.9388 6.11719 13.8229 6.23112 14.6523 6.45898C15.4863 6.68229 16.2542 6.97852 16.9561 7.34766C17.6579 7.7168 18.2845 8.12467 18.8359 8.57129C19.3874 9.0179 19.8545 9.46452 20.2373 9.91113C20.6247 10.3577 20.9186 10.7725 21.1191 11.1553C21.3242 11.5335 21.4268 11.8389 21.4268 12.0713C21.4268 12.3083 21.3242 12.6182 21.1191 13.001C20.9186 13.3792 20.6247 13.7917 20.2373 14.2383C19.8545 14.6849 19.3874 15.1315 18.8359 15.5781C18.2845 16.0247 17.6579 16.4326 16.9561 16.8018C16.2588 17.1709 15.4932 17.4671 14.6592 17.6904C13.8298 17.9183 12.9434 18.0322 12 18.0322ZM12 16.5488C12.7064 16.5488 13.3854 16.4622 14.0371 16.2891C14.6888 16.1159 15.2972 15.888 15.8623 15.6055C16.4274 15.3184 16.9401 15.0062 17.4004 14.6689C17.8607 14.3271 18.2549 13.9876 18.583 13.6504C18.9111 13.3132 19.1641 13.0055 19.3418 12.7275C19.5195 12.4495 19.6084 12.2308 19.6084 12.0713C19.6084 11.9391 19.5195 11.7409 19.3418 11.4766C19.1641 11.2122 18.9111 10.9115 18.583 10.5742C18.2549 10.2324 17.8607 9.89062 17.4004 9.54883C16.9401 9.20247 16.4274 8.88346 15.8623 8.5918C15.2972 8.29557 14.6888 8.05859 14.0371 7.88086C13.3854 7.69857 12.7064 7.60742 12 7.60742C11.2845 7.60742 10.6009 7.69857 9.94922 7.88086C9.29753 8.05859 8.68913 8.29557 8.12402 8.5918C7.55892 8.88346 7.04622 9.20247 6.58594 9.54883C6.13021 9.89062 5.736 10.2324 5.40332 10.5742C5.0752 10.9115 4.82227 11.2122 4.64453 11.4766C4.47135 11.7409 4.38477 11.9391 4.38477 12.0713C4.38477 12.2308 4.47135 12.4495 4.64453 12.7275C4.82227 13.0055 5.0752 13.3132 5.40332 13.6504C5.736 13.9876 6.13021 14.3271 6.58594 14.6689C7.04622 15.0062 7.55892 15.3184 8.12402 15.6055C8.68913 15.888 9.29753 16.1159 9.94922 16.2891C10.6009 16.4622 11.2845 16.5488 12 16.5488ZM12 15.6465C11.4987 15.6465 11.0316 15.5531 10.5986 15.3662C10.1657 15.1794 9.78516 14.9219 9.45703 14.5938C9.12891 14.2611 8.87142 13.8783 8.68457 13.4453C8.50228 13.0124 8.41113 12.5544 8.41113 12.0713C8.41113 11.5745 8.50228 11.1097 8.68457 10.6768C8.87142 10.2438 9.12891 9.86556 9.45703 9.54199C9.78516 9.21387 10.1657 8.95866 10.5986 8.77637C11.0316 8.59408 11.4987 8.50293 12 8.50293C12.4967 8.50293 12.9616 8.59408 13.3945 8.77637C13.8275 8.95866 14.208 9.21387 14.5361 9.54199C14.8643 9.86556 15.1195 10.2438 15.3018 10.6768C15.4886 11.1097 15.582 11.5745 15.582 12.0713C15.582 12.5544 15.4886 13.0124 15.3018 13.4453C15.1195 13.8783 14.8643 14.2611 14.5361 14.5938C14.208 14.9219 13.8275 15.1794 13.3945 15.3662C12.9616 15.5531 12.4967 15.6465 12 15.6465ZM11.9932 13.2061C12.3076 13.2061 12.5765 13.0944 12.7998 12.8711C13.0231 12.6478 13.1348 12.3812 13.1348 12.0713C13.1348 11.7614 13.0231 11.4971 12.7998 11.2783C12.5765 11.055 12.3076 10.9434 11.9932 10.9434C11.6787 10.9434 11.4098 11.055 11.1865 11.2783C10.9678 11.4971 10.8584 11.7614 10.8584 12.0713C10.8584 12.3812 10.9678 12.6478 11.1865 12.8711C11.4098 13.0944 11.6787 13.2061 11.9932 13.2061Z" fill="#B7B7B7"/>
</svg>
