<svg width="32" height="32" viewBox="0 0 32 32" fill="none" xmlns="http://www.w3.org/2000/svg">
<path d="M11.7549 22.4902C10.5563 22.4902 9.95703 22.0778 9.95703 21.2529C9.95703 20.7744 10.1006 20.2799 10.3877 19.7695C10.6748 19.2546 11.0827 18.7783 11.6113 18.3408C12.1445 17.9033 12.7803 17.5501 13.5186 17.2812C14.2614 17.0078 15.0863 16.8711 15.9932 16.8711C16.9046 16.8711 17.7295 17.0078 18.4678 17.2812C19.2106 17.5501 19.8464 17.9033 20.375 18.3408C20.9082 18.7783 21.3184 19.2546 21.6055 19.7695C21.8926 20.2799 22.0361 20.7744 22.0361 21.2529C22.0361 22.0778 21.4346 22.4902 20.2314 22.4902H11.7549ZM11.6045 21.1914H20.3818C20.4593 21.1914 20.5117 21.1777 20.5391 21.1504C20.571 21.1276 20.5869 21.0866 20.5869 21.0273C20.5869 20.7767 20.4844 20.4896 20.2793 20.166C20.0788 19.8424 19.7826 19.5303 19.3906 19.2295C18.9987 18.9242 18.5179 18.6712 17.9482 18.4707C17.3786 18.2702 16.7269 18.1699 15.9932 18.1699C15.2594 18.1699 14.6077 18.2702 14.0381 18.4707C13.4684 18.6712 12.9876 18.9242 12.5957 19.2295C12.2038 19.5303 11.9053 19.8424 11.7002 20.166C11.4997 20.4896 11.3994 20.7767 11.3994 21.0273C11.3994 21.0866 11.4154 21.1276 11.4473 21.1504C11.4792 21.1777 11.5316 21.1914 11.6045 21.1914ZM16 16.1055C15.4395 16.1055 14.9313 15.9596 14.4756 15.668C14.0199 15.3763 13.6553 14.9844 13.3818 14.4922C13.113 13.9954 12.9785 13.4486 12.9785 12.8516C12.9785 12.2591 13.1152 11.7214 13.3887 11.2383C13.6621 10.7507 14.0267 10.3633 14.4824 10.0762C14.9382 9.78451 15.444 9.63867 16 9.63867C16.556 9.63867 17.0618 9.78223 17.5176 10.0693C17.9733 10.3564 18.3356 10.7415 18.6045 11.2246C18.8779 11.7077 19.0146 12.2454 19.0146 12.8379C19.0146 13.4395 18.8779 13.9886 18.6045 14.4854C18.3356 14.9775 17.9733 15.3717 17.5176 15.668C17.0618 15.9596 16.556 16.1055 16 16.1055ZM16 14.8135C16.3053 14.8135 16.5833 14.7269 16.834 14.5537C17.0892 14.376 17.292 14.139 17.4424 13.8428C17.5973 13.542 17.6748 13.207 17.6748 12.8379C17.6748 12.4779 17.5996 12.1543 17.4492 11.8672C17.2988 11.5801 17.096 11.3522 16.8408 11.1836C16.5856 11.015 16.3053 10.9307 16 10.9307C15.6947 10.9307 15.4144 11.015 15.1592 11.1836C14.904 11.3522 14.6989 11.5824 14.5439 11.874C14.3936 12.1657 14.3184 12.4893 14.3184 12.8447C14.3184 13.2139 14.3958 13.5488 14.5508 13.8496C14.7057 14.1458 14.9085 14.3805 15.1592 14.5537C15.4144 14.7269 15.6947 14.8135 16 14.8135ZM4.30371 22.4902C3.79785 22.4902 3.41732 22.3809 3.16211 22.1621C2.9069 21.9434 2.7793 21.6198 2.7793 21.1914C2.7793 20.6263 2.91602 20.084 3.18945 19.5645C3.46289 19.0449 3.83887 18.5824 4.31738 18.1768C4.80046 17.7712 5.35872 17.4521 5.99219 17.2197C6.63021 16.9827 7.31152 16.8643 8.03613 16.8643C8.38249 16.8643 8.72884 16.8962 9.0752 16.96C9.42155 17.0192 9.75879 17.1081 10.0869 17.2266C10.415 17.3405 10.7227 17.4818 11.0098 17.6504C10.8001 17.7871 10.6156 17.9352 10.4561 18.0947C10.3011 18.2497 10.1667 18.4206 10.0527 18.6074C9.87044 18.5072 9.66764 18.4229 9.44434 18.3545C9.22103 18.2816 8.98861 18.2269 8.74707 18.1904C8.51009 18.1494 8.27311 18.1289 8.03613 18.1289C7.50293 18.1289 7.00163 18.2109 6.53223 18.375C6.06283 18.5391 5.64583 18.7601 5.28125 19.0381C4.92122 19.3161 4.63867 19.6305 4.43359 19.9814C4.23307 20.3278 4.13281 20.6855 4.13281 21.0547C4.13281 21.1094 4.14421 21.1504 4.16699 21.1777C4.19434 21.2051 4.23991 21.2188 4.30371 21.2188H8.97949C8.95215 21.4603 8.99316 21.7018 9.10254 21.9434C9.21647 22.1895 9.3737 22.3717 9.57422 22.4902H4.30371ZM8.04297 16.1943C7.5599 16.1943 7.11784 16.0667 6.7168 15.8115C6.32031 15.5518 6.00358 15.2054 5.7666 14.7725C5.52962 14.3395 5.41113 13.8587 5.41113 13.3301C5.40658 12.8105 5.52279 12.3389 5.75977 11.915C6.0013 11.4867 6.32031 11.1449 6.7168 10.8896C7.11784 10.6344 7.5599 10.5068 8.04297 10.5068C8.52604 10.5068 8.96582 10.6344 9.3623 10.8896C9.76335 11.1403 10.0824 11.4798 10.3193 11.9082C10.5563 12.332 10.6748 12.8014 10.6748 13.3164C10.6748 13.8451 10.5563 14.3281 10.3193 14.7656C10.0824 15.2031 9.76335 15.5518 9.3623 15.8115C8.96582 16.0667 8.52604 16.1943 8.04297 16.1943ZM8.04297 14.916C8.28906 14.916 8.51465 14.8454 8.71973 14.7041C8.92936 14.5628 9.0957 14.3714 9.21875 14.1299C9.34635 13.8883 9.41016 13.6172 9.41016 13.3164C9.41016 13.0293 9.34635 12.7718 9.21875 12.5439C9.0957 12.3115 8.93164 12.127 8.72656 11.9902C8.52148 11.849 8.29362 11.7783 8.04297 11.7783C7.79688 11.7783 7.56901 11.849 7.35938 11.9902C7.1543 12.127 6.99023 12.3138 6.86719 12.5508C6.74414 12.7832 6.68262 13.043 6.68262 13.3301C6.68262 13.6263 6.74414 13.8952 6.86719 14.1367C6.99479 14.3783 7.16113 14.5697 7.36621 14.7109C7.57129 14.8477 7.79688 14.916 8.04297 14.916ZM27.6963 22.4902H22.4189C22.6195 22.3717 22.7767 22.1895 22.8906 21.9434C23.0046 21.7018 23.0479 21.4603 23.0205 21.2188H27.6895C27.7533 21.2188 27.7988 21.2051 27.8262 21.1777C27.8535 21.1504 27.8672 21.1094 27.8672 21.0547C27.8672 20.6855 27.7646 20.3278 27.5596 19.9814C27.3545 19.6305 27.0719 19.3161 26.7119 19.0381C26.3519 18.7601 25.9349 18.5391 25.4609 18.375C24.9915 18.2109 24.4902 18.1289 23.957 18.1289C23.7246 18.1289 23.4876 18.1494 23.2461 18.1904C23.0091 18.2269 22.779 18.2816 22.5557 18.3545C22.3324 18.4229 22.1296 18.5072 21.9473 18.6074C21.8333 18.4206 21.6966 18.2497 21.5371 18.0947C21.3822 17.9352 21.1976 17.7871 20.9834 17.6504C21.2705 17.4818 21.5781 17.3405 21.9062 17.2266C22.2389 17.1081 22.5785 17.0192 22.9248 16.96C23.2712 16.8962 23.6152 16.8643 23.957 16.8643C24.6862 16.8643 25.3675 16.9827 26.001 17.2197C26.639 17.4521 27.1973 17.7712 27.6758 18.1768C28.1589 18.5824 28.5371 19.0449 28.8105 19.5645C29.084 20.084 29.2207 20.6263 29.2207 21.1914C29.2207 21.6198 29.0931 21.9434 28.8379 22.1621C28.5827 22.3809 28.2021 22.4902 27.6963 22.4902ZM23.957 16.1943C23.4694 16.1943 23.0273 16.0667 22.6309 15.8115C22.2344 15.5518 21.9154 15.2031 21.6738 14.7656C21.4368 14.3281 21.3184 13.8451 21.3184 13.3164C21.3184 12.8014 21.4368 12.332 21.6738 11.9082C21.9154 11.4798 22.2344 11.1403 22.6309 10.8896C23.0273 10.6344 23.4694 10.5068 23.957 10.5068C24.4355 10.5068 24.8753 10.6344 25.2764 10.8896C25.6774 11.1449 25.9964 11.4867 26.2334 11.915C26.4704 12.3389 26.5889 12.8105 26.5889 13.3301C26.5889 13.8587 26.4681 14.3395 26.2266 14.7725C25.9896 15.2054 25.6729 15.5518 25.2764 15.8115C24.8799 16.0667 24.4401 16.1943 23.957 16.1943ZM23.957 14.916C24.1986 14.916 24.4219 14.8477 24.627 14.7109C24.8366 14.5697 25.0029 14.3783 25.126 14.1367C25.2536 13.8952 25.3174 13.6263 25.3174 13.3301C25.3174 13.043 25.2559 12.7832 25.1328 12.5508C25.0098 12.3138 24.8434 12.127 24.6338 11.9902C24.4287 11.849 24.2031 11.7783 23.957 11.7783C23.7064 11.7783 23.4762 11.849 23.2666 11.9902C23.0615 12.127 22.8975 12.3115 22.7744 12.5439C22.6514 12.7718 22.5898 13.0293 22.5898 13.3164C22.5898 13.6172 22.6514 13.8883 22.7744 14.1299C22.902 14.3714 23.0684 14.5628 23.2734 14.7041C23.4831 14.8454 23.7109 14.916 23.957 14.916Z" fill="#B7B7B7"/>
</svg>
