<svg width="32" height="32" viewBox="0 0 32 32" fill="none" xmlns="http://www.w3.org/2000/svg">
<path d="M11.7686 22.2646C11.1852 22.2646 10.7796 22.1758 10.5518 21.998C10.3239 21.8249 10.21 21.5765 10.21 21.2529C10.21 20.8154 10.3444 20.3551 10.6133 19.8721C10.8822 19.389 11.2695 18.9378 11.7754 18.5186C12.2812 18.0947 12.8896 17.7507 13.6006 17.4863C14.3161 17.222 15.1159 17.0898 16 17.0898C16.8887 17.0898 17.6885 17.222 18.3994 17.4863C19.1149 17.7507 19.7233 18.0947 20.2246 18.5186C20.7305 18.9378 21.1178 19.389 21.3867 19.8721C21.6602 20.3551 21.7969 20.8154 21.7969 21.2529C21.7969 21.5765 21.6807 21.8249 21.4482 21.998C21.2204 22.1758 20.8171 22.2646 20.2383 22.2646H11.7686ZM16.0068 15.8867C15.5055 15.8867 15.043 15.7523 14.6191 15.4834C14.1999 15.21 13.8626 14.8454 13.6074 14.3896C13.3568 13.9294 13.2314 13.4144 13.2314 12.8447C13.2314 12.2933 13.3568 11.792 13.6074 11.3408C13.8626 10.8851 14.1999 10.5251 14.6191 10.2607C15.043 9.99186 15.5055 9.85742 16.0068 9.85742C16.5081 9.85742 16.9684 9.98958 17.3877 10.2539C17.807 10.5182 18.1442 10.876 18.3994 11.3271C18.6546 11.7738 18.7822 12.2773 18.7822 12.8379C18.7822 13.4076 18.6546 13.9225 18.3994 14.3828C18.1488 14.8431 17.8138 15.21 17.3945 15.4834C16.9753 15.7523 16.5127 15.8867 16.0068 15.8867ZM4.33789 22.2715C3.85938 22.2715 3.52214 22.1712 3.32617 21.9707C3.13021 21.7747 3.03223 21.4967 3.03223 21.1367C3.03223 20.681 3.15072 20.2161 3.3877 19.7422C3.62923 19.2637 3.97103 18.8239 4.41309 18.4229C4.8597 18.0218 5.39062 17.696 6.00586 17.4453C6.62565 17.1947 7.31608 17.0693 8.07715 17.0693C8.67871 17.0693 9.22331 17.1491 9.71094 17.3086C10.2031 17.4635 10.6338 17.6595 11.0029 17.8965C10.6064 18.2109 10.2669 18.5641 9.98438 18.9561C9.70182 19.348 9.48535 19.749 9.33496 20.1592C9.18913 20.5648 9.11849 20.9499 9.12305 21.3145C9.13216 21.6836 9.22786 22.0026 9.41016 22.2715H4.33789ZM8.07715 16.0371C7.63965 16.0371 7.23633 15.9209 6.86719 15.6885C6.5026 15.4515 6.21094 15.1325 5.99219 14.7314C5.77344 14.3304 5.66406 13.8838 5.66406 13.3916C5.65951 12.9085 5.76888 12.471 5.99219 12.0791C6.21549 11.6826 6.50944 11.3682 6.87402 11.1357C7.24316 10.9033 7.64421 10.7871 8.07715 10.7871C8.51009 10.7871 8.90885 10.9033 9.27344 11.1357C9.64258 11.3636 9.93652 11.6735 10.1553 12.0654C10.3786 12.4574 10.4902 12.8971 10.4902 13.3848C10.4902 13.877 10.3809 14.3258 10.1621 14.7314C9.94336 15.1325 9.65169 15.4515 9.28711 15.6885C8.92253 15.9209 8.51921 16.0371 8.07715 16.0371ZM27.6621 22.2715H22.583C22.7699 22.0026 22.8656 21.6836 22.8701 21.3145C22.8792 20.9499 22.8086 20.5648 22.6582 20.1592C22.5124 19.749 22.2982 19.348 22.0156 18.9561C21.7331 18.5641 21.3913 18.2109 20.9902 17.8965C21.3639 17.6595 21.7946 17.4635 22.2822 17.3086C22.7744 17.1491 23.3213 17.0693 23.9229 17.0693C24.6794 17.0693 25.3675 17.1947 25.9873 17.4453C26.6071 17.696 27.138 18.0218 27.5801 18.4229C28.0267 18.8239 28.3685 19.2637 28.6055 19.7422C28.847 20.2161 28.9678 20.681 28.9678 21.1367C28.9678 21.4967 28.8698 21.7747 28.6738 21.9707C28.4779 22.1712 28.1406 22.2715 27.6621 22.2715ZM23.9229 16.0371C23.4808 16.0371 23.0775 15.9209 22.7129 15.6885C22.3483 15.4515 22.0544 15.1325 21.8311 14.7314C21.6123 14.3258 21.5029 13.877 21.5029 13.3848C21.5029 12.8971 21.6146 12.4574 21.8379 12.0654C22.0612 11.6735 22.3551 11.3636 22.7197 11.1357C23.0843 10.9033 23.4854 10.7871 23.9229 10.7871C24.3558 10.7871 24.7546 10.9033 25.1191 11.1357C25.4883 11.3682 25.7822 11.6826 26.001 12.0791C26.2243 12.471 26.3359 12.9085 26.3359 13.3916C26.3359 13.8838 26.2243 14.3304 26.001 14.7314C25.7822 15.1325 25.4906 15.4515 25.126 15.6885C24.7614 15.9209 24.3604 16.0371 23.9229 16.0371Z" fill="#3F51B5"/>
</svg>
