<svg width="32" height="32" viewBox="0 0 32 32" fill="none" xmlns="http://www.w3.org/2000/svg">
<path d="M9.28125 24.8203C8.44271 24.8203 7.8099 24.6042 7.38281 24.1719C6.95573 23.7396 6.74219 23.1016 6.74219 22.2578V10.4688C6.74219 9.63021 6.95573 8.99479 7.38281 8.5625C7.8099 8.125 8.44271 7.90625 9.28125 7.90625H17.6016C18.4401 7.90625 19.0729 8.125 19.5 8.5625C19.9271 8.99479 20.1406 9.63021 20.1406 10.4688V14.125H18.6094V10.5703C18.6094 10.2057 18.5156 9.92708 18.3281 9.73438C18.1406 9.53646 17.8568 9.4375 17.4766 9.4375H9.41406C9.03385 9.4375 8.75 9.53646 8.5625 9.73438C8.375 9.92708 8.28125 10.2057 8.28125 10.5703V22.1641C8.28125 22.5234 8.375 22.7995 8.5625 22.9922C8.75 23.1849 9.03385 23.2812 9.41406 23.2812H17.4766C17.8568 23.2812 18.1406 23.1849 18.3281 22.9922C18.5156 22.7995 18.6094 22.5234 18.6094 22.1641V18.5938H20.1406V22.2578C20.1406 23.1016 19.9271 23.7396 19.5 24.1719C19.0729 24.6042 18.4401 24.8203 17.6016 24.8203H9.28125ZM14.3203 17.0781C14.1276 17.0781 13.9609 17.0078 13.8203 16.8672C13.6797 16.7266 13.6094 16.5573 13.6094 16.3594C13.6094 16.1615 13.6797 15.9922 13.8203 15.8516C13.9609 15.7057 14.1276 15.6328 14.3203 15.6328H22.1875L23.3516 15.6953L22.7734 15.2109L21.6172 14.1094C21.4714 13.9844 21.3984 13.8203 21.3984 13.6172C21.3984 13.4401 21.4557 13.2891 21.5703 13.1641C21.6849 13.0391 21.8359 12.9766 22.0234 12.9766C22.1953 12.9766 22.349 13.0469 22.4844 13.1875L25.0156 15.8125C25.1042 15.901 25.1667 15.9922 25.2031 16.0859C25.2396 16.1745 25.2578 16.2656 25.2578 16.3594C25.2578 16.4531 25.2396 16.5443 25.2031 16.6328C25.1667 16.7214 25.1042 16.8125 25.0156 16.9062L22.4844 19.5312C22.349 19.6667 22.1953 19.7344 22.0234 19.7344C21.8359 19.7344 21.6849 19.6719 21.5703 19.5469C21.4557 19.4167 21.3984 19.263 21.3984 19.0859C21.3984 18.8932 21.4714 18.7318 21.6172 18.6016L22.7734 17.5078L23.3516 17.0234L22.1875 17.0781H14.3203Z" fill="#F44336"/>
</svg>
