<svg width="32" height="32" viewBox="0 0 32 32" fill="none" xmlns="http://www.w3.org/2000/svg">
<path d="M10.8047 23.4219C10.3672 23.4219 10.0234 23.3229 9.77344 23.125C9.52344 22.9271 9.39844 22.6562 9.39844 22.3125C9.39844 21.8073 9.54948 21.2786 9.85156 20.7266C10.1589 20.1745 10.599 19.6562 11.1719 19.1719C11.75 18.6875 12.4453 18.2943 13.2578 17.9922C14.0703 17.6901 14.9818 17.5391 15.9922 17.5391C17.0078 17.5391 17.9219 17.6901 18.7344 17.9922C19.5469 18.2943 20.2396 18.6875 20.8125 19.1719C21.3906 19.6562 21.8333 20.1745 22.1406 20.7266C22.4479 21.2786 22.6016 21.8073 22.6016 22.3125C22.6016 22.6562 22.4766 22.9271 22.2266 23.125C21.9766 23.3229 21.6328 23.4219 21.1953 23.4219H10.8047ZM16 16.1484C15.4323 16.1484 14.9089 15.9948 14.4297 15.6875C13.9557 15.3802 13.5729 14.9661 13.2812 14.4453C12.9948 13.9245 12.8516 13.3411 12.8516 12.6953C12.8516 12.0599 12.9948 11.487 13.2812 10.9766C13.5729 10.4609 13.9583 10.0521 14.4375 9.75C14.9167 9.44792 15.4375 9.29688 16 9.29688C16.5677 9.29688 17.0911 9.44531 17.5703 9.74219C18.0495 10.0391 18.4323 10.4453 18.7188 10.9609C19.0104 11.4714 19.1562 12.0443 19.1562 12.6797C19.1562 13.3307 19.0104 13.9193 18.7188 14.4453C18.4323 14.9661 18.0495 15.3802 17.5703 15.6875C17.0911 15.9948 16.5677 16.1484 16 16.1484Z" fill="#3F51B5"/>
</svg>
