<svg width="24" height="24" viewBox="0 0 24 24" fill="none" xmlns="http://www.w3.org/2000/svg">
<path d="M12 18.0322C11.0658 18.0322 10.1862 17.9183 9.36133 17.6904C8.53646 17.4671 7.77311 17.1709 7.07129 16.8018C6.36947 16.4326 5.74056 16.0247 5.18457 15.5781C4.63314 15.1315 4.16146 14.6849 3.76953 14.2383C3.3776 13.7917 3.0791 13.3792 2.87402 13.001C2.66895 12.6182 2.56641 12.3083 2.56641 12.0713C2.56641 11.8708 2.64388 11.6133 2.79883 11.2988C2.95833 10.9798 3.18848 10.6312 3.48926 10.2529C3.79004 9.87012 4.1569 9.48047 4.58984 9.08398C5.02279 8.6875 5.51725 8.3138 6.07324 7.96289L7.23535 9.11816C6.79329 9.39616 6.39681 9.68555 6.0459 9.98633C5.69499 10.2826 5.39421 10.5697 5.14355 10.8477C4.89746 11.1211 4.70833 11.3672 4.57617 11.5859C4.44857 11.8001 4.38477 11.9619 4.38477 12.0713C4.38477 12.2308 4.47135 12.4495 4.64453 12.7275C4.82227 13.0055 5.0752 13.3132 5.40332 13.6504C5.736 13.9876 6.13021 14.3271 6.58594 14.6689C7.04622 15.0062 7.55892 15.3184 8.12402 15.6055C8.68913 15.888 9.29753 16.1159 9.94922 16.2891C10.6009 16.4622 11.2845 16.5488 12 16.5488C12.3874 16.5488 12.7656 16.5192 13.1348 16.46C13.5039 16.4007 13.8617 16.3232 14.208 16.2275L15.4453 17.4717C14.9258 17.6449 14.3766 17.7816 13.7979 17.8818C13.2236 17.9821 12.6243 18.0322 12 18.0322ZM12 6.11719C12.9434 6.11719 13.8298 6.23112 14.6592 6.45898C15.4932 6.68229 16.2588 6.97852 16.9561 7.34766C17.6579 7.7168 18.2845 8.12467 18.8359 8.57129C19.3874 9.0179 19.8545 9.46452 20.2373 9.91113C20.6247 10.3577 20.9186 10.7725 21.1191 11.1553C21.3242 11.5335 21.4268 11.8389 21.4268 12.0713C21.4268 12.2718 21.3493 12.5293 21.1943 12.8438C21.0439 13.1582 20.8252 13.5023 20.5381 13.876C20.251 14.2451 19.8978 14.6257 19.4785 15.0176C19.0638 15.4095 18.5898 15.7832 18.0566 16.1387L16.915 14.9834C17.3298 14.7191 17.7012 14.4456 18.0293 14.1631C18.362 13.876 18.6468 13.598 18.8838 13.3291C19.1208 13.0602 19.3008 12.8164 19.4238 12.5977C19.5469 12.3789 19.6084 12.2035 19.6084 12.0713C19.6084 11.9391 19.5195 11.7409 19.3418 11.4766C19.1641 11.2122 18.9111 10.9115 18.583 10.5742C18.2549 10.2324 17.8607 9.89062 17.4004 9.54883C16.9447 9.20247 16.432 8.88346 15.8623 8.5918C15.2972 8.29557 14.6888 8.05859 14.0371 7.88086C13.3854 7.69857 12.7064 7.60742 12 7.60742C11.6354 7.60742 11.2845 7.63249 10.9473 7.68262C10.61 7.73275 10.2796 7.80111 9.95605 7.8877L8.71191 6.65039C9.21777 6.48177 9.74186 6.35189 10.2842 6.26074C10.8311 6.16504 11.403 6.11719 12 6.11719ZM12 15.6533C11.4987 15.6533 11.0316 15.5599 10.5986 15.373C10.1657 15.1816 9.78516 14.9219 9.45703 14.5938C9.12891 14.2611 8.8737 13.8805 8.69141 13.4521C8.50911 13.0192 8.41569 12.5612 8.41113 12.0781C8.41113 11.8366 8.4362 11.6042 8.48633 11.3809C8.53646 11.153 8.60938 10.9388 8.70508 10.7383L13.3262 15.3594C13.1211 15.4505 12.9069 15.5234 12.6836 15.5781C12.4648 15.6283 12.237 15.6533 12 15.6533ZM15.3359 13.2607L10.8105 8.72852C10.9928 8.6556 11.182 8.60091 11.3779 8.56445C11.5785 8.52344 11.7858 8.50293 12 8.50293C12.4967 8.50293 12.9616 8.59408 13.3945 8.77637C13.8275 8.95866 14.208 9.21387 14.5361 9.54199C14.8643 9.86556 15.1195 10.2438 15.3018 10.6768C15.4886 11.1097 15.582 11.5745 15.582 12.0713C15.582 12.2809 15.5592 12.486 15.5137 12.6865C15.4727 12.887 15.4134 13.0785 15.3359 13.2607ZM17.4346 18.1895L5.74512 6.50684C5.63574 6.40202 5.58105 6.27214 5.58105 6.11719C5.58105 5.95768 5.63574 5.82552 5.74512 5.7207C5.85449 5.61133 5.98665 5.55892 6.1416 5.56348C6.29655 5.56348 6.42871 5.61589 6.53809 5.7207L18.2275 17.4033C18.3369 17.5127 18.3916 17.6403 18.3916 17.7861C18.3962 17.9365 18.3415 18.071 18.2275 18.1895C18.1182 18.3079 17.986 18.3649 17.8311 18.3604C17.6807 18.3558 17.5485 18.2988 17.4346 18.1895Z" fill="#B7B7B7"/>
</svg>
