<svg width="32" height="32" viewBox="0 0 32 32" fill="none" xmlns="http://www.w3.org/2000/svg">
<path d="M13.6875 21.8516C13.5417 21.8516 13.4245 21.8099 13.3359 21.7266C13.2474 21.6432 13.2005 21.5312 13.1953 21.3906L12.9609 13.0391C12.9557 12.9036 12.9974 12.7943 13.0859 12.7109C13.1797 12.6224 13.2995 12.5781 13.4453 12.5781C13.5859 12.5781 13.7005 12.6198 13.7891 12.7031C13.8828 12.7865 13.9297 12.8958 13.9297 13.0312L14.1719 21.3906C14.1719 21.526 14.1276 21.638 14.0391 21.7266C13.9505 21.8099 13.8333 21.8516 13.6875 21.8516ZM16 21.8516C15.8542 21.8516 15.7344 21.8099 15.6406 21.7266C15.5469 21.638 15.5 21.526 15.5 21.3906V13.0391C15.5 12.9036 15.5469 12.7943 15.6406 12.7109C15.7344 12.6224 15.8542 12.5781 16 12.5781C16.151 12.5781 16.2734 12.6224 16.3672 12.7109C16.4609 12.7943 16.5078 12.9036 16.5078 13.0391V21.3906C16.5078 21.526 16.4609 21.638 16.3672 21.7266C16.2734 21.8099 16.151 21.8516 16 21.8516ZM18.3203 21.8516C18.1693 21.8516 18.0495 21.8099 17.9609 21.7266C17.8724 21.638 17.8307 21.526 17.8359 21.3906L18.0703 13.0391C18.0755 12.8984 18.1224 12.7865 18.2109 12.7031C18.2995 12.6198 18.4141 12.5781 18.5547 12.5781C18.7057 12.5781 18.8255 12.6224 18.9141 12.7109C19.0026 12.7943 19.0443 12.9036 19.0391 13.0391L18.8047 21.3906C18.7995 21.5312 18.7526 21.6432 18.6641 21.7266C18.5755 21.8099 18.4609 21.8516 18.3203 21.8516ZM12.5703 10.5391V8.78906C12.5703 8.22656 12.7422 7.78385 13.0859 7.46094C13.4349 7.13281 13.9089 6.96875 14.5078 6.96875H17.4766C18.0755 6.96875 18.5469 7.13281 18.8906 7.46094C19.2396 7.78385 19.4141 8.22656 19.4141 8.78906V10.5391H18.1719V8.86719C18.1719 8.64844 18.099 8.47135 17.9531 8.33594C17.8125 8.20052 17.625 8.13281 17.3906 8.13281H14.5938C14.3594 8.13281 14.1693 8.20052 14.0234 8.33594C13.8828 8.47135 13.8125 8.64844 13.8125 8.86719V10.5391H12.5703ZM9.02344 11.1641C8.86719 11.1641 8.72917 11.1068 8.60938 10.9922C8.49479 10.8724 8.4375 10.7318 8.4375 10.5703C8.4375 10.4141 8.49479 10.2786 8.60938 10.1641C8.72917 10.0443 8.86719 9.98438 9.02344 9.98438H22.9844C23.1406 9.98438 23.276 10.0417 23.3906 10.1562C23.5052 10.2708 23.5625 10.4089 23.5625 10.5703C23.5625 10.7318 23.5052 10.8724 23.3906 10.9922C23.2812 11.1068 23.1458 11.1641 22.9844 11.1641H9.02344ZM12.4219 24.3672C11.8594 24.3672 11.4036 24.2005 11.0547 23.8672C10.7109 23.5391 10.526 23.0938 10.5 22.5312L9.94531 11.0156H11.1719L11.7266 22.3906C11.737 22.6198 11.8177 22.8099 11.9688 22.9609C12.1198 23.112 12.3073 23.1875 12.5312 23.1875H19.4609C19.6901 23.1875 19.8802 23.112 20.0312 22.9609C20.1823 22.8151 20.263 22.625 20.2734 22.3906L20.7969 11.0156H22.0547L21.5078 22.5234C21.4818 23.0859 21.2943 23.5339 20.9453 23.8672C20.5964 24.2005 20.1432 24.3672 19.5859 24.3672H12.4219Z" fill="#F44336"/>
</svg>
