<svg width="32" height="32" viewBox="0 0 32 32" fill="none" xmlns="http://www.w3.org/2000/svg">
<path d="M11.2578 23.2188L8.98438 24.0703C8.79167 24.1432 8.61198 24.1016 8.44531 23.9453C8.27865 23.7891 8.23438 23.599 8.3125 23.375L9.15625 21.1172L19.0938 11.1641L21.1953 13.2656L11.2578 23.2188ZM22.2188 12.2422L20.1172 10.1406L21.2109 9.05469C21.4714 8.79948 21.75 8.66406 22.0469 8.64844C22.349 8.63281 22.625 8.7526 22.875 9.00781L23.3594 9.5C23.6094 9.75 23.7292 10.0234 23.7188 10.3203C23.7135 10.612 23.5807 10.888 23.3203 11.1484L22.2188 12.2422Z" fill="black" fill-opacity="0.87"/>
</svg>
