<svg width="32" height="32" viewBox="0 0 32 32" fill="none" xmlns="http://www.w3.org/2000/svg">
<path d="M13.0312 12.5234H18.9766C19.1224 12.5234 19.2422 12.4714 19.3359 12.3672C19.4349 12.263 19.4844 12.138 19.4844 11.9922C19.4844 11.8516 19.4349 11.7344 19.3359 11.6406C19.2422 11.5417 19.1224 11.4922 18.9766 11.4922H13.0312C12.8802 11.4922 12.7552 11.5417 12.6562 11.6406C12.5573 11.7344 12.5078 11.8516 12.5078 11.9922C12.5078 12.138 12.5573 12.263 12.6562 12.3672C12.7552 12.4714 12.8802 12.5234 13.0312 12.5234ZM13.0312 15.2969H18.9766C19.1224 15.2969 19.2422 15.2474 19.3359 15.1484C19.4349 15.0443 19.4844 14.9167 19.4844 14.7656C19.4844 14.625 19.4349 14.5078 19.3359 14.4141C19.2422 14.3151 19.1224 14.2656 18.9766 14.2656H13.0312C12.8802 14.2656 12.7552 14.3151 12.6562 14.4141C12.5573 14.5078 12.5078 14.625 12.5078 14.7656C12.5078 14.9167 12.5573 15.0443 12.6562 15.1484C12.7552 15.2474 12.8802 15.2969 13.0312 15.2969ZM13.0312 18.0703H15.8984C16.0495 18.0703 16.1745 18.0208 16.2734 17.9219C16.3724 17.8229 16.4219 17.7031 16.4219 17.5625C16.4219 17.4167 16.3724 17.2943 16.2734 17.1953C16.1745 17.0911 16.0495 17.0391 15.8984 17.0391H13.0312C12.8802 17.0391 12.7552 17.0911 12.6562 17.1953C12.5573 17.2943 12.5078 17.4167 12.5078 17.5625C12.5078 17.7031 12.5573 17.8229 12.6562 17.9219C12.7552 18.0208 12.8802 18.0703 13.0312 18.0703ZM9.29688 22.2578V10.4688C9.29688 9.63021 9.51042 8.99479 9.9375 8.5625C10.3646 8.125 10.9974 7.90625 11.8359 7.90625H20.1562C20.9948 7.90625 21.6276 8.125 22.0547 8.5625C22.4818 8.99479 22.6953 9.63021 22.6953 10.4688V22.2578C22.6953 23.1016 22.4818 23.7396 22.0547 24.1719C21.6276 24.6042 20.9948 24.8203 20.1562 24.8203H11.8359C10.9974 24.8203 10.3646 24.6042 9.9375 24.1719C9.51042 23.7396 9.29688 23.1016 9.29688 22.2578Z" fill="#3F51B5"/>
</svg>
