<svg width="32" height="32" viewBox="0 0 32 32" fill="none" xmlns="http://www.w3.org/2000/svg">
<path d="M13.1406 12.6562C12.9948 12.6562 12.875 12.6068 12.7812 12.5078C12.6875 12.4089 12.6406 12.2917 12.6406 12.1562C12.6406 12.0156 12.6875 11.8984 12.7812 11.8047C12.875 11.7109 12.9948 11.6641 13.1406 11.6641H18.8594C19 11.6641 19.1172 11.7109 19.2109 11.8047C19.3047 11.8984 19.3516 12.0156 19.3516 12.1562C19.3516 12.2917 19.3047 12.4089 19.2109 12.5078C19.1172 12.6068 19 12.6562 18.8594 12.6562H13.1406ZM13.1406 15.3203C12.9948 15.3203 12.875 15.2734 12.7812 15.1797C12.6875 15.0807 12.6406 14.9609 12.6406 14.8203C12.6406 14.6849 12.6875 14.5703 12.7812 14.4766C12.875 14.3828 12.9948 14.3359 13.1406 14.3359H18.8594C19 14.3359 19.1172 14.3828 19.2109 14.4766C19.3047 14.5703 19.3516 14.6849 19.3516 14.8203C19.3516 14.9609 19.3047 15.0807 19.2109 15.1797C19.1172 15.2734 19 15.3203 18.8594 15.3203H13.1406ZM13.1406 17.9922C12.9948 17.9922 12.875 17.9453 12.7812 17.8516C12.6875 17.7578 12.6406 17.6432 12.6406 17.5078C12.6406 17.3672 12.6875 17.25 12.7812 17.1562C12.875 17.0573 12.9948 17.0078 13.1406 17.0078H15.9062C16.0521 17.0078 16.1719 17.0573 16.2656 17.1562C16.3594 17.25 16.4062 17.3672 16.4062 17.5078C16.4062 17.6432 16.3594 17.7578 16.2656 17.8516C16.1719 17.9453 16.0521 17.9922 15.9062 17.9922H13.1406ZM9.29688 22.2578V10.4688C9.29688 9.63021 9.51042 8.99479 9.9375 8.5625C10.3646 8.125 10.9974 7.90625 11.8359 7.90625H20.1562C20.9948 7.90625 21.6276 8.125 22.0547 8.5625C22.4818 8.99479 22.6953 9.63021 22.6953 10.4688V22.2578C22.6953 23.1016 22.4818 23.7396 22.0547 24.1719C21.6276 24.6042 20.9948 24.8203 20.1562 24.8203H11.8359C10.9974 24.8203 10.3646 24.6042 9.9375 24.1719C9.51042 23.7396 9.29688 23.1016 9.29688 22.2578ZM10.8359 22.1641C10.8359 22.5234 10.9297 22.7995 11.1172 22.9922C11.3047 23.1849 11.5885 23.2812 11.9688 23.2812H20.0312C20.4115 23.2812 20.6953 23.1849 20.8828 22.9922C21.0703 22.7995 21.1641 22.5234 21.1641 22.1641V10.5703C21.1641 10.2057 21.0703 9.92708 20.8828 9.73438C20.6953 9.53646 20.4115 9.4375 20.0312 9.4375H11.9688C11.5885 9.4375 11.3047 9.53646 11.1172 9.73438C10.9297 9.92708 10.8359 10.2057 10.8359 10.5703V22.1641Z" fill="#B7B7B7"/>
</svg>
