<svg width="32" height="32" viewBox="0 0 32 32" fill="none" xmlns="http://www.w3.org/2000/svg">
<path d="M9.30469 23.6562C8.46615 23.6562 7.82812 23.4427 7.39062 23.0156C6.95833 22.5885 6.74219 21.9583 6.74219 21.125V11.6094C6.74219 10.776 6.95833 10.1458 7.39062 9.71875C7.82812 9.28646 8.46615 9.07031 9.30469 9.07031H22.6875C23.5312 9.07031 24.1693 9.28646 24.6016 9.71875C25.0339 10.1458 25.25 10.776 25.25 11.6094V12.6328C24.9948 12.5182 24.7396 12.4479 24.4844 12.4219C24.2292 12.3906 23.974 12.388 23.7188 12.4141V11.7422C23.7188 11.3672 23.6198 11.0859 23.4219 10.8984C23.2292 10.7057 22.9531 10.6094 22.5938 10.6094H9.40625C9.04167 10.6094 8.76302 10.7057 8.57031 10.8984C8.3776 11.0859 8.28125 11.3672 8.28125 11.7422V20.9922C8.28125 21.3672 8.3776 21.651 8.57031 21.8438C8.76302 22.0312 9.04167 22.125 9.40625 22.125H18.1953C18.1172 22.3854 18.0755 22.6484 18.0703 22.9141C18.0651 23.1849 18.1146 23.4323 18.2188 23.6562H9.30469ZM10.0391 20.9844C9.6276 20.9844 9.42188 20.7734 9.42188 20.3516V12.3828C9.42188 11.9609 9.6276 11.75 10.0391 11.75H21.9609C22.3724 11.75 22.5781 11.9609 22.5781 12.3828V12.7734C22.1823 12.9349 21.8307 13.1745 21.5234 13.4922C21.2161 13.8047 20.974 14.1719 20.7969 14.5938C20.6198 15.0156 20.5339 15.4661 20.5391 15.9453C20.5391 16.4974 20.6484 17.0104 20.8672 17.4844C21.0911 17.9531 21.3906 18.3464 21.7656 18.6641C21.3125 18.8047 20.8906 18.9896 20.5 19.2188C20.1094 19.4479 19.763 19.7135 19.4609 20.0156C19.1589 20.3125 18.9193 20.6354 18.7422 20.9844H10.0391ZM20.1953 23.6562C19.888 23.6562 19.6432 23.5859 19.4609 23.4453C19.2839 23.3099 19.1953 23.1172 19.1953 22.8672C19.1953 22.5026 19.3047 22.1224 19.5234 21.7266C19.7422 21.3255 20.0573 20.9505 20.4688 20.6016C20.8854 20.2526 21.3854 19.9688 21.9688 19.75C22.5573 19.5312 23.2161 19.4219 23.9453 19.4219C24.6745 19.4219 25.3307 19.5312 25.9141 19.75C26.4974 19.9688 26.9948 20.2526 27.4062 20.6016C27.8229 20.9505 28.1406 21.3255 28.3594 21.7266C28.5781 22.1224 28.6875 22.5026 28.6875 22.8672C28.6875 23.1172 28.599 23.3099 28.4219 23.4453C28.2448 23.5859 28 23.6562 27.6875 23.6562H20.1953ZM23.9453 18.4297C23.5391 18.4297 23.1641 18.3203 22.8203 18.1016C22.4766 17.8776 22.2005 17.5781 21.9922 17.2031C21.7839 16.8281 21.6797 16.4089 21.6797 15.9453C21.6745 15.487 21.776 15.0729 21.9844 14.7031C22.1979 14.3333 22.4766 14.0417 22.8203 13.8281C23.1641 13.6094 23.5391 13.5 23.9453 13.5C24.3516 13.5 24.7266 13.6068 25.0703 13.8203C25.4141 14.0339 25.6901 14.3255 25.8984 14.6953C26.1068 15.0599 26.2109 15.4714 26.2109 15.9297C26.2109 16.3984 26.1068 16.8229 25.8984 17.2031C25.6901 17.5781 25.4141 17.8776 25.0703 18.1016C24.7318 18.3203 24.3568 18.4297 23.9453 18.4297Z" fill="#3F51B5"/>
</svg>
